<svg width="24" height="24" viewBox="0 0 24 24" fill="none" xmlns="http://www.w3.org/2000/svg">
<path d="M19.1157 4H4.88257C4.39551 4 4 4.39551 4 4.88257V19.1148C4 19.6036 4.39551 19.9982 4.88257 19.9982H12.5439V13.8034H10.4615V11.3858H12.5466V9.60827C12.5466 7.54183 13.8087 6.41751 15.652 6.41751C16.5346 6.41751 17.2936 6.48239 17.5149 6.51172V8.67148H16.2369C15.2343 8.67148 15.0406 9.14876 15.0406 9.84824V11.3894H17.4314L17.1203 13.8042H15.0406V19.9982H19.1174C19.6045 19.9982 20 19.6027 20 19.1157V4.88257C20 4.39551 19.6045 4 19.1174 4H19.1157Z" fill="black"/>
</svg>
