<svg width="191" height="137" xmlns="http://www.w3.org/2000/svg" xmlns:xlink="http://www.w3.org/1999/xlink"><title>Group 14</title><defs><path id="a" d="M0 0h191v137H0z"/></defs><g fill="none" fill-rule="evenodd"><mask id="b" fill="#fff"><use xlink:href="#a"/></mask><path d="M90.892 132.45c1.215.641 2.02 1.246 2.924 1.51 4.358 1.277 12.883-1.665 15.417-5.397.545-.806.96-2.226.604-2.958-.313-.645-1.814-1.063-2.748-.993-6.25.46-10.88 4.303-16.197 7.839m96.764-104.964c-3.186-4.564-7.02-7.511-11.02-10.255-3.69-2.534-7.316-1.497-9.342 2.477-.554 1.088-1.185 2.308-2.125 2.994-3.314 2.416-4.549 5.805-3.054 9.554.202.502 1.072 1.052 1.63 1.048 8.28-.049 15.79-3.158 23.91-5.818M63.266 85.335c.461.37.581.542.721.563 13.17 2.005 26.233 1.759 38.976-2.465 4.576-1.516 8.578-4.134 11.309-8.364 3.236-5.013 1.226-11.483-4.516-12.938-3.496-.886-7.267-.8-10.922-.911-3.897-.122-6.773 1.782-9.614 4.49-6.848 6.53-14.086 12.651-22.33 17.43-1.14.66-2.257 1.364-3.624 2.195m41.513-40.448c-1.164-.435-1.812-.798-2.502-.915-8.12-1.382-16.258-2.039-24.506-1.09-9.763 1.123-18.68 4.02-26.535 10.264-11.59 9.21-7.649 26.424 4.306 30.453 2.04.688 3.773.982 5.633-.292 6.002-4.113 12.12-8.057 18.02-12.31 3.011-2.171 5.65-4.858 8.458-7.315-.122-.178-.243-.359-.365-.54-9.211 2.625-18.317 5.499-26.32 11.287.786-1.585 1.696-2.969 2.85-4.106 6.31-6.22 14.274-9.712 22.663-11.144 6.4-1.094 10.19-4.65 13.907-9.069 1.371-1.631 2.74-3.262 4.391-5.223m4.965-2.102c.824.336 1.176.527 1.554.628 5.662 1.512 11.302 3.124 17.002 4.484 8.502 2.028 17.036 2.553 25.585.061 1.684-.491 2.172-1.094 1.948-2.972-.312-2.612-.495-5.446.195-7.926 1.347-4.849.149-8.525-3.61-11.643-1.214-1.01-2.715-2.057-3.242-3.415-.637-1.642-.878-3.781-.381-5.431.578-1.915 2.535-2.912 4.691-2.54 1.716.296 3.381.886 5.078 1.308 1.122.279 2.399.944 3.37.65 3.307-1.001 6.512-2.349 10.253-3.753-1.237-.907-2.233-1.57-3.154-2.322-7.246-5.927-15.32-6.414-23.867-3.617-5.255 1.721-9.295 5.342-12.919 9.243-5.01 5.393-9.616 11.166-14.314 16.843-2.751 3.325-5.346 6.781-8.19 10.402m-19.955 86.96c1.98-1.55 3.928-3.08 5.883-4.6 2.91-2.267 6.18-3.674 9.861-4.054 2.86-.296 5.776.98 6.682 3.07 1.137 2.624.256 4.91-1.497 6.955-5.374 6.266-14.276 7.681-21.107 3.503-.728-.445-1.965-.058-2.48-.058-.16-1.296-.205-2.811-.56-4.25-1.232-5.027 1.67-11.825 7.364-15.447 4.782-3.042 9.935-5.506 14.969-8.143 8.003-4.19 16.457-7.675 23.978-12.598 14.85-9.718 23.032-23.752 24.011-41.7.038-.722-.128-1.456-.228-2.487-.844.36-1.45.556-1.995.863-6.78 3.808-14.026 3.82-21.228 2.009-7.697-1.938-15.26-4.42-22.838-6.802-1.942-.611-3.137-.365-4.452 1.3-2.584 3.27-5.449 6.318-8.24 9.507 3.118.363 6.145.664 9.152 1.077 4.436.609 10.055 5.65 11.114 9.926 1.1 4.455-.527 8.15-3.568 11.215-5.763 5.809-13.034 8.748-20.916 10.196-10.727 1.974-21.535 2.32-32.226-.046-3.306-.73-6.08-.393-9.153.733-12.497 4.578-25.194 5.349-37.9.923C6.503 88.08.922 82.925.114 74.112c-.816-8.9 2.737-15.964 10.338-20.622 3.255-1.996 7.009-3.176 10.534-4.726l.41.859c-2.59 1.614-5.263 3.11-7.754 4.86-8.022 5.64-10.803 16.446-6.544 25.035 1.514 3.052 3.912 5.156 6.93 6.674 11.425 5.752 23.137 4.973 34.974 1.63 1.331-.375 2.648-.801 4.114-1.246-1.937-1.592-3.632-3.036-5.381-4.407-7.96-6.24-10.241-22.268 1.02-31.952C58.986 41.42 70.902 38.343 84 39.273c6.919.491 13.8 1.573 20.672 2.561 1.63.236 2.555-.046 3.591-1.354 7.548-9.527 14.884-19.247 22.9-28.368 6.294-7.161 14.335-11.77 24.272-12.1 7.304-.244 12.53 3.522 16.983 8.774.97 1.145 1.798 2.408 2.769 3.553.394.466.962.808 1.5 1.123 2.057 1.205 4.485 2.017 6.121 3.638 2.72 2.693 5.004 5.847 7.336 8.907 1.47 1.93 1.055 3.086-1.327 3.953-4.72 1.72-9.495 3.284-14.194 5.05-.984.369-2.041 1.167-2.553 2.061-2.689 4.705-6.168 8.502-11.04 11.043-.82.426-1.344 1.923-1.514 3.004-.99 6.268-1.294 12.697-2.84 18.816-2.86 11.326-9.865 19.528-19.985 25.58-10.549 6.307-21.742 11.165-32.73 16.518-4.08 1.989-7.866 4.762-11.396 7.655-3.2 2.626-4.153 7.123-2.779 10.058" fill="#000" mask="url(#b)"/></g></svg>