<svg width="111" height="106" xmlns="http://www.w3.org/2000/svg"><g fill="#1D1D1B" fill-rule="evenodd"><path d="M110.65 55.652c.707 7.042.146 14.723-2.553 22.172-2.627 7.43-7.629 14.559-14.714 19.505-7.032 5.038-15.869 7.685-24.907 8.372-4.539.352-9.148.216-13.776-.271a78.858 78.858 0 0 1-13.864-2.725c-9.141-2.685-18.11-7.226-25.444-14.053-3.652-3.405-6.866-7.38-9.334-11.844A41.97 41.97 0 0 1 1.302 62.25C.614 57.127.895 51.864 2 46.78c1.1-5.09 3.002-9.998 5.42-14.624 2.429-4.613 5.274-9.062 8.752-13.057 3.503-3.956 7.6-7.488 12.284-10.102 5.357-3.04 11.45-4.766 17.602-5.187 6.165-.363 12.355.532 18.194 2.378 5.84 1.861 11.371 4.578 16.432 7.946 5.085 3.337 9.693 7.337 13.79 11.763 4.066 4.454 7.621 9.364 10.365 14.694 2.775 5.303 4.716 11.054 5.465 16.972.781 5.904.156 12.007-1.944 17.534-2.05 5.56-5.643 10.384-9.853 14.28-2.123 1.928-4.397 3.7-6.756 5.21-1.172.771-2.33 1.554-3.548 2.241-1.2.714-2.395 1.429-3.64 2.05-4.909 2.598-10.072 4.63-15.377 5.873-5.312 1.17-10.757 1.585-16.025.957-2.637-.284-5.205-.875-7.705-1.593-2.47-.808-4.891-1.716-7.147-2.903C29.2 96.556 22.265 89.23 17.493 81.416c-4.811-7.844-7.58-16.278-8.618-24.347-.522-4.458-.865-11.127 1.09-18.21.963-3.52 2.498-7.102 4.661-10.324 2.164-3.221 5.012-5.995 8.117-8.087 3.108-2.104 6.466-3.505 9.614-4.367 3.154-.841 6.088-1.3 8.567-1.394 4.959-.259 8.042.246 8.028.42-.01.286-3.107.165-7.923.723-2.412.243-5.23.826-8.222 1.747-2.986.94-6.123 2.368-8.988 4.416-2.863 2.039-5.455 4.672-7.42 7.712-1.962 3.041-3.352 6.41-4.218 9.74-1.762 6.692-1.393 13.057-.87 17.317a59.767 59.767 0 0 0 8.21 23.099c4.488 7.425 10.99 14.302 19.364 18.783 8.358 4.46 18.628 6.006 28.622 3.852 5.004-.995 9.927-2.803 14.638-5.189a79.608 79.608 0 0 0 6.934-3.957c2.254-1.47 4.496-2.94 6.504-4.712.522-.42 1.026-.86 1.5-1.335.48-.465.977-.918 1.447-1.396.9-.992 1.831-1.964 2.632-3.044 1.642-2.121 3.112-4.405 4.19-6.886 2.196-4.933 3.17-10.456 2.76-15.974-.389-5.516-1.91-11.01-4.316-16.137-2.367-5.152-5.557-9.968-9.267-14.37-7.462-8.755-17.102-15.941-27.996-20.116-5.453-2.017-11.214-3.338-17.021-3.385-5.793-.091-11.608 1.003-16.86 3.406-4.7 2.056-8.877 5.166-12.526 8.754-3.606 3.65-6.648 7.838-9.187 12.295-2.56 4.445-4.649 9.14-5.999 14.013-1.353 4.866-1.948 9.908-1.616 14.865.322 4.954 1.56 9.818 3.708 14.23 2.117 4.424 5.018 8.429 8.419 11.89 6.856 6.918 15.561 11.611 24.504 14.454 8.97 2.844 18.306 3.893 27.208 3.407 8.894-.48 17.422-3.005 24.237-7.646 3.373-2.344 6.36-5.124 8.718-8.29 2.367-3.154 4.242-6.583 5.527-10.145a46.175 46.175 0 0 0 2.521-10.785c.383-3.596.366-7.141.04-10.555-.29-3.086-.933-6.89-2.174-11.06-1.26-4.16-3.114-8.69-5.727-13.114a60.4 60.4 0 0 0-9.8-12.596c-3.88-3.846-8.353-7.13-12.982-9.752A67.33 67.33 0 0 0 63.531 3.59a72.74 72.74 0 0 0-12.398-2.369C43.906.453 39.283.796 39.275.517c-.006-.102 1.14-.235 3.21-.394 1.034-.083 2.3-.08 3.769-.117.734-.024 1.517.029 2.347.044.83.031 1.708.034 2.625.124 3.67.227 8.02.812 12.688 2.008a66.778 66.778 0 0 1 14.475 5.616c4.813 2.608 9.488 5.928 13.554 9.85a61.866 61.866 0 0 1 10.305 12.924c2.756 4.56 4.725 9.249 6.067 13.565 1.324 4.33 2.019 8.293 2.334 11.515"/><path d="M61.863 57.104c-1.743.207-4.291-.062-6.914.113-3.01.2-6.088.838-8.107.803-.56-.012-2.133-.2-2.258-1.424-.124-1.224 1.404-1.714 1.962-1.823 1.99-.404 5.095-.379 8.114-.534 2.68-.14 5.305-.496 7.1-.394.813.04 3.166.467 3.185 1.55.017 1.078-2.286 1.608-3.082 1.709"/><path d="M59.354 61.472c1.329-1.109 3.057-2.332 4.968-3.669L67.3 55.71c.5-.347.885-.656 1.1-.924.113-.129.113-.196.085-.303a.267.267 0 0 0-.068-.095 1.5 1.5 0 0 0-.103-.097 5.12 5.12 0 0 0-.687-.475 48.84 48.84 0 0 0-1.876-1.073 52.138 52.138 0 0 0-3.76-1.829c-2.466-1.083-4.767-1.902-6.552-2.608-.976-.422-3.738-1.548-3.429-2.892.317-1.372 3.475-.934 4.577-.615 1.975.506 4.393 1.438 6.93 2.695a55.193 55.193 0 0 1 3.855 2.117c.645.387 1.29.79 1.928 1.202.313.199.696.447 1.084.768.204.173.373.32.616.594a4.1 4.1 0 0 1 .585.87c.57 1.113.42 2.482-.27 3.51-.611.905-1.23 1.367-1.786 1.814l-2.915 2.284c-1.871 1.465-3.58 2.784-5.027 3.763-1.31.886-5.29 3.201-6.03 2.226-.738-.976 2.584-4.157 3.797-5.17"/></g></svg>