<svg width="392" height="228" xmlns="http://www.w3.org/2000/svg" xmlns:xlink="http://www.w3.org/1999/xlink"><title>Group</title><defs><path id="a" d="M0 0h93v67H0z"/><path id="c" d="M0 0h63v134H0z"/><path id="e" d="M0 0h92v71H0z"/><path id="g" d="M0 0h36v17H0z"/></defs><g fill="none" fill-rule="evenodd"><g transform="translate(149)"><mask id="b" fill="#fff"><use xlink:href="#a"/></mask><path d="M44.256 64.775c.592.313.984.609 1.424.738 2.122.625 6.273-.814 7.507-2.64.265-.394.467-1.088.294-1.446-.152-.315-.884-.52-1.338-.485-3.043.224-5.298 2.104-7.887 3.833m47.116-51.332c-1.551-2.232-3.418-3.674-5.366-5.016-1.797-1.239-3.562-.732-4.549 1.212-.27.532-.577 1.128-1.034 1.464-1.614 1.182-2.215 2.839-1.487 4.672.098.246.522.515.793.513 4.032-.024 7.689-1.544 11.643-2.845m-60.568 28.29c.225.18.283.265.352.275 6.412.98 12.773.86 18.977-1.205 2.229-.741 4.177-2.022 5.507-4.09 1.575-2.452.597-5.616-2.199-6.328-1.702-.433-3.538-.391-5.318-.445-1.898-.06-3.298.871-4.681 2.196-3.335 3.193-6.859 6.187-10.873 8.523-.555.324-1.099.668-1.765 1.074m20.214-19.781c-.567-.213-.883-.39-1.219-.448-3.954-.675-7.916-.997-11.932-.533-4.754.55-9.096 1.967-12.92 5.02-5.643 4.504-3.724 12.923 2.096 14.893.994.337 1.838.48 2.743-.143 2.923-2.01 5.902-3.94 8.774-6.02 1.467-1.062 2.751-2.376 4.119-3.577-.06-.087-.119-.176-.178-.264-4.485 1.283-8.919 2.689-12.816 5.52.383-.776.826-1.452 1.388-2.009 3.073-3.042 6.95-4.75 11.035-5.45 3.117-.534 4.962-2.273 6.771-4.435l2.139-2.554m2.417-1.028c.401.165.573.258.757.307 2.757.74 5.503 1.528 8.278 2.193 4.14.992 8.295 1.249 12.458.03.82-.24 1.058-.535.948-1.454-.152-1.277-.24-2.663.095-3.876.656-2.371.073-4.169-1.757-5.694-.591-.493-1.323-1.006-1.579-1.67-.31-.803-.428-1.849-.186-2.656.282-.936 1.235-1.424 2.285-1.242.835.144 1.646.433 2.472.64.546.136 1.168.461 1.64.318 1.611-.49 3.172-1.15 4.993-1.836-.602-.444-1.087-.768-1.535-1.136-3.529-2.898-7.46-3.136-11.621-1.769-2.56.842-4.526 2.613-6.29 4.52-2.44 2.638-4.683 5.462-6.97 8.238-1.34 1.626-2.603 3.316-3.988 5.087m-9.717 42.528c.964-.758 1.913-1.506 2.865-2.25 1.417-1.109 3.01-1.796 4.801-1.982 1.393-.145 2.813.48 3.254 1.5.553 1.284.124 2.402-.73 3.402-2.616 3.065-6.95 3.757-10.276 1.714-.355-.218-.957-.029-1.208-.029-.078-.633-.1-1.375-.272-2.078-.6-2.459.813-5.783 3.585-7.554 2.328-1.488 4.838-2.693 7.288-3.983 3.897-2.05 8.014-3.754 11.676-6.161 7.23-4.753 11.214-11.616 11.691-20.393.018-.353-.062-.713-.111-1.217-.41.177-.706.272-.971.422-3.302 1.863-6.83 1.869-10.337.983-3.748-.948-7.43-2.162-11.12-3.327-.945-.299-1.527-.178-2.167.636-1.259 1.6-2.653 3.09-4.013 4.65 1.519.177 2.992.324 4.457.526 2.16.298 4.895 2.763 5.411 4.854.536 2.18-.256 3.986-1.737 5.485-2.806 2.84-6.347 4.278-10.184 4.987-5.224.965-10.486 1.134-15.692-.023-1.61-.357-2.96-.192-4.456.358-6.085 2.24-12.268 2.616-18.454.452-3.852-1.349-6.57-3.87-6.962-8.18-.398-4.352 1.332-7.806 5.033-10.085 1.585-.976 3.413-1.553 5.13-2.31l.199.42c-1.262.789-2.563 1.52-3.776 2.376-3.906 2.759-5.26 8.043-3.186 12.243.737 1.493 1.905 2.522 3.374 3.264 5.564 2.813 11.266 2.432 17.03.798.648-.184 1.29-.392 2.003-.61-.944-.778-1.769-1.485-2.62-2.155-3.876-3.051-4.987-10.89.496-15.626 4.982-4.303 10.785-5.807 17.162-5.352 3.369.24 6.72.769 10.066 1.252.793.115 1.243-.022 1.748-.662 3.675-4.66 7.247-9.413 11.15-13.874C66.93 2.421 70.845.168 75.683.005c3.557-.119 6.102 1.723 8.27 4.292.472.56.875 1.178 1.348 1.737.192.228.469.395.73.55 1.002.589 2.184.986 2.98 1.779 1.325 1.317 2.437 2.859 3.573 4.356.716.943.514 1.51-.647 1.933-2.297.841-4.622 1.606-6.91 2.47-.48.18-.995.57-1.244 1.008-1.309 2.3-3.003 4.158-5.375 5.4-.4.208-.655.94-.737 1.47-.482 3.065-.63 6.209-1.383 9.201-1.393 5.54-4.804 9.55-9.731 12.51-5.137 3.085-10.587 5.46-15.937 8.079-1.987.972-3.83 2.328-5.549 3.743-1.558 1.284-2.022 3.483-1.353 4.919" fill="#000" mask="url(#b)"/></g><g transform="translate(158 94)"><mask id="d" fill="#fff"><use xlink:href="#c"/></mask><path d="M19.718 36.49c-.414.115-.494.113-.527.15-2.11 2.429-4.297 4.797-6.285 7.321-.78.991-1.318 2.287-1.6 3.526-.31 1.356.703 2.046 1.92 1.341 1.026-.596 2.104-1.352 2.742-2.315 1.039-1.568 1.87-3.312 2.538-5.078.573-1.52.794-3.174 1.212-4.946m25.198-1.88c.12.17.143.244.19.266 3.034 1.366 6.23 2.07 9.542 2.067.787-.001 1.703-.477 2.339-1.003 2.199-1.82 2.951-4.345 3.057-7.098.068-1.787.056-3.58-.654-5.27-.653-1.555-1.243-1.815-2.759-1.208a9.776 9.776 0 0 0-1.57.825c-3.427 2.174-5.849 5.327-8.21 8.532-.696.946-1.311 1.954-1.935 2.89M31.51 60.028l-.285-.067c-.152.394-.297.79-.457 1.182-2.193 5.382-4.517 10.716-6.549 16.16-2.36 6.326-4.515 12.732-6.664 19.135-1.353 4.032-2.575 8.11-3.778 12.189-1.537 5.214-2.988 10.455-4.49 15.68-.656 2.283-1.378 4.549-2.002 6.84-.13.478.036 1.038.065 1.56.399-.355.927-.636 1.176-1.075 2.521-4.453 4.337-9.223 6.07-14.017 2.073-5.732 4.11-11.48 5.997-17.275 1.528-4.69 2.839-9.454 4.195-14.2a617.233 617.233 0 0 0 3.378-12.292c.94-3.568 1.797-7.16 2.676-10.744.25-1.019.447-2.05.668-3.076M.92 4.336C.42 3.386-.174 2.44.048 1.274.218.373 1.395-.236 2.589.088c1.095.298 2.238.706 3.145 1.364 2.928 2.123 5.365 4.767 7.676 7.55 1.852 2.229 3.514 4.585 4.701 7.203 1.159 2.554 2.215 5.2 2.902 7.911.634 2.495.716 5.13 1.04 7.702l.074.567c1.505-1.285 2.911-2.504 4.338-3.699 2.832-2.374 5.734-4.65 9.176-6.1a7.952 7.952 0 0 1 1.791-.523c.707-.116.951.455.987.992.068 1.027.103 2.068.011 3.091-.376 4.208-.739 8.419-1.244 12.612-.286 2.386-.848 4.738-1.267 7.108-.165.938-.28 1.884-.232 2.897l7.635-13.7-2.208-2.005.18-.26c.579.357 1.182.68 1.729 1.081.613.45.979.34 1.439-.27 1.899-2.523 3.791-5.056 5.814-7.479 1.442-1.726 3.043-3.348 5.138-4.317 1.678-.775 3.35-.779 5.03.129 1.446.782 2.01 2.098 2.32 3.564.974 4.622-1.143 9.4-4.951 12.04-2.804 1.946-5.747 1.62-8.685.454-1.444-.574-2.823-1.328-4.188-2.08-.61-.336-.897-.168-1.195.353-2.094 3.664-4.198 7.321-6.297 10.982-.342.597-.603 1.254-1.017 1.795-1.992 2.6-2.033 5.793-2.717 8.787-1.364 5.98-2.616 11.986-4.06 17.946-1.335 5.502-2.82 10.967-4.32 16.425-.744 2.713-1.632 5.389-2.53 8.057-.996 2.958-2.006 5.915-3.136 8.824-1.812 4.665-3.612 9.342-5.641 13.914-1.355 3.05-3.044 5.958-4.708 8.86-.457.796-1.34 1.361-2.075 1.976-.187.156-.653.22-.82.095-.192-.143-.301-.557-.261-.826.149-.99.322-1.982.58-2.95.708-2.653 1.45-5.297 2.203-7.94 1.079-3.79 2.162-7.581 3.274-11.364 1.067-3.628 2.17-7.245 3.262-10.867.838-2.783 1.626-5.583 2.54-8.34.975-2.937 2.07-5.833 3.117-8.746.774-2.151 1.492-4.325 2.343-6.445 1.281-3.192 2.653-6.348 3.996-9.516 1.21-2.852 2.254-5.794 3.701-8.521 1.554-2.927 2.054-6.084 2.687-9.231.543-2.7 1.098-5.408 1.418-8.14.621-5.312 1.489-10.62.906-16.003-.02-.187-.044-.373-.062-.56-.07-.72-.37-.983-1.038-.536-2.441 1.629-4.904 3.226-7.314 4.898-1.257.872-2.377 1.943-3.642 2.801-1.623 1.102-2.208 2.638-2.398 4.508-.32 3.14-1.207 6.137-2.822 8.867-1.377 2.329-3.468 3.823-6.006 4.663-1.363.451-2.548-.66-2.37-2.148.236-1.975 1.207-3.643 2.438-5.108 1.949-2.318 4.056-4.503 6.048-6.786.356-.409.667-1.013.686-1.539.218-6.03-.83-11.847-3.23-17.382-.643-1.482-1.583-2.838-2.423-4.23-1.888-3.13-4.273-5.871-6.862-8.418-1.078-1.06-2.408-1.872-3.661-2.743C2.968.94 2.302.845 1.696 1.325 1.07 1.82.828 2.443 1.068 3.24c.098.329.121.68.18 1.021l-.327.076" fill="#000" mask="url(#d)"/></g><path d="M139.323 107.247c-.24-.884-.459-1.776-.727-2.653-.229-.746-.441-1.512-.787-2.207-1.334-2.677-3.662-3.964-6.513-4.275-3-.326-5.868.307-8.697 1.374-5.937 2.241-10.969 5.837-15.716 9.96-3.279 2.848-6.236 5.983-8.83 9.431-3.554 4.724-6.96 9.572-9.134 15.133-.492 1.258-.729 2.643-.9 3.993-.22 1.726 1.094 2.978 2.899 2.597 1.66-.35 3.35-.885 4.828-1.697a103.554 103.554 0 0 0 8.368-5.157c2.422-1.647 4.71-3.497 7.017-5.307 2.63-2.064 5.304-4.085 7.806-6.297 4.54-4.017 8.968-8.161 13.442-12.253.161-.147.299-.333.483-.44.17-.101.388-.122.585-.179.05.196.17.404.14.587-.273 1.601-.662 3.188-.846 4.799-.398 3.471-.869 6.95-.968 10.436-.06 2.12.366 4.294.842 6.383.599 2.621 3.967 4.323 6.736 3.78 3.318-.65 6.039-2.49 8.82-4.212 4.831-2.995 9.068-6.751 13.295-10.521 1.723-1.537 3.541-2.973 5.383-4.368.463-.351 1.182-.365 1.783-.534.126.643.464 1.33.342 1.922-.595 2.892-1.303 5.762-1.992 8.636-.836 3.492-1.704 6.977-2.535 10.47a345.882 345.882 0 0 0-1.775 7.75c-.549 2.566-1.032 5.145-1.532 7.721-.451 2.329-.918 4.656-1.318 6.993a242.648 242.648 0 0 0-1.114 7.232c-.616 4.396-1.26 8.79-1.75 13.2-.122 1.11.394 2.275.447 3.422.078 1.634.015 3.277-.031 4.915-.007.25-.215.515-.38.735-.395.532-.866.533-.984-.136-.262-1.49-.563-3.004-.549-4.506.026-2.78.216-5.561.428-8.335.346-4.55.553-9.124 1.203-13.632.869-6.02 2.03-12.003 3.21-17.973a144.39 144.39 0 0 1 2.668-11.209c1.168-4.142 2.592-8.212 3.888-12.317.367-1.162.684-2.338 1.005-3.512.052-.187.007-.4.007-.602l-.248-.202c-1.01.796-2.07 1.537-3.018 2.401-2.263 2.062-4.358 4.325-6.731 6.245-3.468 2.806-7.028 5.522-10.73 8.005-2.18 1.463-4.624 2.635-7.33 2.946-1.34.153-2.705.442-4.024.316-2.414-.23-4.057-1.75-5.293-3.761-1.118-1.82-1.32-3.835-1.482-5.913-.339-4.335.468-8.518 1.38-12.703.031-.14.02-.289.035-.567-.276.164-.472.24-.617.371-2.59 2.357-5.136 4.763-7.769 7.07-2.702 2.369-5.435 4.705-8.247 6.94-3.864 3.072-7.732 6.154-11.757 9.005-2.977 2.108-6.186 3.904-9.767 4.866-.631.17-1.281.305-1.931.365-2.615.243-4.164-1.114-4.325-3.754-.121-1.99.464-3.853 1.196-5.644 2.519-6.153 6.191-11.626 10.254-16.834 2.99-3.835 6.481-7.202 10.252-10.276 1.839-1.498 3.543-3.186 5.49-4.522 1.943-1.335 4.065-2.44 6.197-3.457 1.595-.762 3.29-1.404 5.01-1.787 3.67-.819 7.303-.796 10.674 1.252 1.237.75 2.183 1.761 2.88 3.013 1.145 2.06 1.568 4.328 1.826 6.633.03.276-.135.573-.21.86l-.262-.015M39.896 119.122c.294.16.626.39.993.532 1.491.57 3.008 1.078 4.485 1.68.804.33 1.222.127 1.644-.607 2.555-4.446 4.699-9.065 6.1-14.002 1.196-4.212 2.084-8.46 1.268-12.866-.64-3.462-2.255-6.41-5.06-8.58-4.604-3.561-9.89-5.753-15.529-7.088-4.276-1.013-8.616-1.742-13.01-2.027-4.98-.324-9.868.11-14.307 2.628C2.13 81.258.593 85.381 1.785 90.03c.972 3.792 3.401 6.852 6.033 9.68 3.562 3.827 7.921 6.706 12.254 9.571 5.07 3.353 10.552 5.974 16.103 8.443 1.263.562 1.273.532 1.868-.735.172-.366.387-.714.545-1.086 1.567-3.69 3.077-7.406 4.727-11.06.36-.796 1.118-1.5 1.854-2.024 1.03-.73 2.461.008 2.19 1.281-.2.93-.366 1.912-.803 2.739-2.145 4.068-4.378 8.093-6.66 12.283m8.002 3.206 9.102 3.14-.078.275c-.89-.24-1.79-.453-2.67-.73a284.308 284.308 0 0 1-6.076-1.97c-.649-.22-.938.02-1.273.552-3.578 5.695-7.628 11.027-12.44 15.77-2.566 2.528-5.356 4.776-8.339 6.796-.456.308-.951.56-1.428.839l-.23-.31c.202-.196.394-.404.605-.59 2.752-2.405 5.683-4.64 8.212-7.256 2.769-2.867 5.233-6.035 7.702-9.17 1.6-2.03 2.986-4.227 4.44-6.368.657-.968.598-1.067-.53-1.482-1.584-.584-3.175-1.155-4.751-1.76-.607-.233-.922 0-1.217.503-1.244 2.125-2.556 4.21-3.761 6.356-2.195 3.908-4.32 7.854-6.499 11.771-.559 1.004-1.198 1.967-1.836 2.925-.233.35-.574.63-.864.943l-.323-.108c.084-.462.062-.978.268-1.378.816-1.576 1.76-3.087 2.554-4.674 2.687-5.376 5.918-10.482 8.16-16.078.701-1.753.857-1.333-.941-2.167-4.062-1.883-8.127-3.78-12.057-5.914a104.107 104.107 0 0 1-9.742-6.02c-3.994-2.778-7.61-6.013-10.387-10.052-1.82-2.649-3.306-5.454-3.485-8.739-.14-2.577.747-4.802 2.507-6.716 2.911-3.166 6.74-4.447 10.818-5.115 4.738-.776 9.52-.78 14.268-.132 2.445.334 4.84 1.025 7.26 1.543 4.873 1.04 9.375 2.988 13.56 5.629 3.458 2.181 5.982 5.14 7.311 9.07 1.11 3.28 1.078 6.567.548 9.922-.608 3.839-1.71 7.532-3.373 11.032-1.45 3.053-3.102 6.01-4.665 9.01-.085.163-.174.324-.35.653" fill="#000"/><g transform="translate(248 67)"><mask id="f" fill="#fff"><use xlink:href="#e"/></mask><path d="M59.105 53.644c-.35.39-.723.632-.835.961-.828 2.434-1.606 4.885-2.392 7.332-.07.218-.083.455.072.801.206-.195.409-.395.622-.584 2.66-2.349 5.257-4.775 8.015-7.004 1.03-.833 2.386-1.364 3.68-1.754 2.226-.671 3.952.109 5.203 2.079 1.323 2.084 1.43 2.042 3.108.277 1.041-1.094 2.18-2.186 3.476-2.934 2.551-1.473 4.42-.845 6.144 1.055 2.532 2.788 4.284 6.08 5.446 9.667.124.381.244.762.356 1.147.007.027-.076.081-.181.185-.784-1.188-1.548-2.371-2.338-3.537-1.787-2.636-3.772-5.108-6.249-7.147-1.68-1.383-2.523-1.441-4.215-.058-1.2.981-2.248 2.151-3.34 3.26-1.266 1.283-1.74 1.28-2.89-.154-.91-1.133-1.949-2.036-3.329-2.618-1.658-.7-2.996-.1-4.286.775-3.427 2.326-6.406 5.153-9.13 8.25-.965 1.097-1.871 2.246-2.82 3.357-.24.282-.501.617-.825.739-.323.122-.797.112-1.087-.048-.15-.083-.166-.677-.038-.942 1.486-3.075 3.067-6.105 4.5-9.204.58-1.257.893-2.644 1.236-3.996.062-.242-.261-.771-.522-.87-1.073-.407-2.193-.69-3.291-1.037-2.741-.865-5.57-.993-8.408-.923-1.432.036-2.863.212-4.287.386-.647.08-.952.457-.966 1.208-.053 2.896-.363 5.772-1.227 8.551a7.746 7.746 0 0 1-1.082 2.149c-.797 1.119-2.828.91-3.33-.467-.577-1.58-.846-3.285-1.124-4.956-.392-2.355-.654-4.73-1.016-7.09-.05-.333-.352-.626-.537-.938-.297.192-.662.328-.879.586-1.88 2.24-3.688 4.541-5.606 6.748-3.042 3.5-6.114 6.977-9.257 10.388-1.066 1.156-2.317 2.176-3.603 3.092-2.196 1.563-3.845-.063-3.914-2.11-.09-2.632-.158-5.293.133-7.9.622-5.583 1.486-11.14 2.243-16.708.836-6.158 1.568-12.327 1.714-18.547.08-3.447.237-6.899.14-10.342-.103-3.625-.336-7.265-1.95-10.634C9.066 1.692 6.901.862 4.638.995c-1.76.102-3.001 1.26-3.755 2.865-.22.464-.45.923-.797 1.342-.265-.897.118-1.65.586-2.331C2.815-.243 6.615-.957 9.59 1.386c1.838 1.447 3.1 3.45 3.495 5.8.456 2.717.877 5.454 1.045 8.199.194 3.18.224 6.382.091 9.565-.17 4.087-.445 8.178-.911 12.24-.487 4.24-1.295 8.441-1.89 12.67a824.866 824.866 0 0 0-1.972 15.045c-.127 1.037-.027 2.113.063 3.163.138 1.6 1.105 2.116 2.323 1.088 1.925-1.623 3.745-3.384 5.493-5.197 2.076-2.152 4.049-4.403 6.031-6.642 2.209-2.495 4.37-5.03 6.569-7.532.739-.84 1.484-1.69 2.323-2.425.744-.653 1.306-.453 1.458.5.352 2.2.602 4.418.924 6.624.318 2.175.661 4.347 1.031 6.514.044.26.328.48.5.717.207-.168.516-.294.604-.508 1.232-3.033 2.166-6.138 2.2-9.621l-1.744.537c.871-1.024 2.598-1.225 1.709-3.033l.52.113c.101.45.2.9.32 1.441 6.01-1.953 11.703-.519 17.533 1.793a27.717 27.717 0 0 0 1.384-8.57l.357-.08c.211.592.56 1.174.609 1.779.167 2.091-.142 4.144-.703 6.166-.364 1.316-.342 1.323.153 1.912" fill="#000" mask="url(#f)"/></g><path d="M355.704 114.278c1.126.709 2.281.972 3.357.712 1.062-.256 2.136-.799 2.508-2.057.182-.614-.014-.946-.662-.89-1.93.167-3.576 1-5.203 2.235m-5.701-35.201-.653 1.117c-.232-.724-.463-1.288-.592-1.875-.386-1.753-.737-3.516-1.088-5.276-.043-.213-.085-.49.012-.654.286-.485.642-.929.97-1.389.323.343.815.634.937 1.037.53 1.745 1.054 3.503 1.391 5.292.888 4.69 1.075 9.429.453 14.166-.49 3.724-1.094 7.433-1.717 11.137-.559 3.329-1.154 6.655-1.84 9.959-.654 3.152-1.419 6.283-2.185 9.41-.509 2.073-1.107 4.125-1.48 6.294.216-.344.448-.68.647-1.034 2.236-4.009 4.596-7.913 7.703-11.348 1.989-2.199 4.374-3.628 7.142-4.361 1.088-.288 2.367-.003 3.529.2.764.133 1.02.974.485 1.545-.59.628-1.283 1.345-2.062 1.57-1.978.574-4.02 1.19-6.049-.01-.239-.14-.846.007-1.071.233-1.354 1.358-2.753 2.695-3.94 4.195-3.032 3.832-5.257 8.171-7.325 12.569-1.012 2.152-1.616 4.496-2.425 6.745-.256.71-.553 1.41-.89 2.083-.085.17-.503.368-.583.307-.19-.144-.412-.472-.366-.66.15-.607.348-1.22.648-1.765 1.8-3.262 2.414-6.895 3.306-10.442.74-2.938 1.516-5.87 2.17-8.828a745.87 745.87 0 0 0 2.872-13.733c.541-2.69 1.14-5.38 1.448-8.1.446-3.957.72-7.937.93-11.914.103-1.946-.1-3.909-.174-5.863-.006-.146-.093-.287-.203-.607M240.876 116.513c-.555-.093-1.108-.198-1.665-.276-.633-.088-.958.17-.816.844.228 1.086.338 2.222 1.484 3.06 0-.47-.034-.943.014-1.407.027-.262.192-.509.294-.762.188.212.535.425.536.637.002.957.023 1.942-.19 2.864-.187.81-.866 1.318-1.757 1.171-.868-.143-1.2-.879-1.231-1.64-.05-1.21.05-2.425.081-3.638.009-.333.001-.667.001-1.115-1.937.44-3.354 1.46-4.51 2.877-1.215 1.489-1.705 3.316-2.028 5.146-.252 1.426.086 2.722 1.521 3.589 2.227 1.344 4.654 1.731 7.167 1.855 3.404.167 6.46-.918 9.162-2.896 1.25-.915 2.23-2.21 3.326-3.337.183-.189.34-.402.511-.604l.224.133c-.137.26-.258.532-.414.78-2.341 3.738-5.909 5.58-10.008 6.604-2.02.505-4.057.763-6.135.493-2.517-.327-4.868-1.118-6.86-2.751-1.402-1.15-1.972-3.866-1.304-5.59.61-1.573 1.346-3.063 2.536-4.282 1.43-1.466 3.08-2.497 5.097-3.012 1.487-.38 2.85-.406 4.172.406.318.196.593.463.887.697l-.095.154" fill="#000"/><g transform="translate(356 117)"><mask id="h" fill="#fff"><use xlink:href="#g"/></mask><path d="M36 13.162c-.187.216-.349.466-.566.642-1.546 1.253-3.207 2.315-5.2 2.55-2.465.291-4.945.66-7.415.646-3.743-.023-7.26-1.14-10.468-3.167C7.962 11.058 4.227 7.534 1.148 3.284A9.054 9.054 0 0 1 .055 1.21C-.065.897.017.305.235.112c.201-.176.843-.137 1.054.066a46.253 46.253 0 0 1 3.076 3.251 45.131 45.131 0 0 0 8.351 7.654c2.554 1.805 5.237 3.284 8.175 4.226 3.002.962 6.079 1.045 9.197.537 1.94-.316 3.595-1.057 4.955-2.52.192-.205.52-.276.784-.41l.173.246" fill="#000" mask="url(#h)"/></g><path d="M70.054 121.922c0-.486.004-.755-.001-1.025-.029-1.445-1.099-2.246-2.57-1.975-2.643.487-4.315 2.206-5.847 4.18-1.204 1.552-1.468 3.214-1.122 5.077.28 1.511 1.46 2.16 2.677 2.64 3.052 1.204 6.204 1.878 9.504.994 1.195-.32 2.378-.685 3.577-.99.216-.055.484.079.728.125-.142.232-.244.626-.432.67-2.004.46-4.006.981-6.041 1.258-2.523.343-5.035-.06-7.449-.779-2.165-.645-4.264-1.517-5.35-3.683-.855-1.702-1.015-3.534-.168-5.21 1.641-3.242 4.397-5.203 8.03-6.034 1.726-.394 3.21-.14 4.455 1.14.949.978 1.008 2.223.009 3.612M311 100.177c-.425.719-.749 1.508-1.305 2.136-.602.68-1.487.912-2.444.437-.89-.44-1.506-1.558-1.147-2.376a6.45 6.45 0 0 1 1.222-1.818c.53-.556 1.288-.704 2.106-.403.975.358 1.317 1.05 1.568 2.024" fill="#000"/><path d="M67.605 126c-1.671-.137-2.822-1.122-2.57-2.244.126-.569.485-.915 1.277-.683.733.215 1.507.389 2.164.71.755.37.556 1.03.258 1.525-.184.304-.74.466-1.129.692" fill="#000"/></g></svg>