<?xml version="1.0" encoding="UTF-8"?>
<svg width="46px" height="46px" viewBox="0 0 46 46" version="1.1" xmlns="http://www.w3.org/2000/svg" xmlns:xlink="http://www.w3.org/1999/xlink">
    <title>Group</title>
    <g stroke="none" stroke-width="1" fill="none" fill-rule="evenodd">
        <g transform="translate(1.000000, 1.000000)">
            <rect stroke="#26262D" x="0" y="0" width="44" height="44" rx="22"></rect>
            <path d="M22.4999792,13.8919302 C25.3036136,13.8919302 25.6356767,13.9026002 26.7428594,13.9531162 C27.766599,13.9998392 28.322566,14.1708932 28.6925995,14.3146469 C29.1826707,14.5051236 29.5324894,14.7326954 29.899897,15.100103 C30.2673046,15.4675106 30.4948764,15.8173293 30.6853114,16.3074005 C30.8291068,16.677434 31.0001608,17.233401 31.0468838,18.257099 C31.0973998,19.3643233 31.1080698,19.6963864 31.1080698,22.5000208 C31.1080698,25.3036553 31.0973998,25.6357184 31.0468838,26.742901 C31.0001608,27.7666407 30.8291068,28.3226077 30.6853114,28.6926411 C30.4948764,29.1827124 30.2673046,29.5325311 29.899897,29.8999387 C29.5324894,30.2673462 29.1826707,30.494918 28.6925995,30.6853531 C28.322566,30.8291485 27.766599,31.0002024 26.7428594,31.0469255 C25.6358435,31.0974415 25.3037804,31.1081115 22.4999792,31.1081115 C19.696178,31.1081115 19.3641149,31.0974415 18.257099,31.0469255 C17.2333593,31.0002024 16.6773923,30.8291485 16.3074005,30.6853531 C15.8172876,30.494918 15.4674689,30.2673462 15.1000613,29.8999387 C14.7326538,29.5325311 14.505082,29.1827124 14.3146469,28.6926411 C14.1708515,28.3226077 13.9997976,27.7666407 13.9530745,26.7429427 C13.9025585,25.6357184 13.8918885,25.3036553 13.8918885,22.5000208 C13.8918885,19.6963864 13.9025585,19.3643233 13.9530745,18.2571406 C13.9997976,17.233401 14.1708515,16.677434 14.3146469,16.3074005 C14.505082,15.8173293 14.7326538,15.4675106 15.1000613,15.100103 C15.4674689,14.7326954 15.8172876,14.5051236 16.3074005,14.3146469 C16.6773923,14.1708932 17.2333593,13.9998392 18.2570573,13.9531162 C19.3642816,13.9026002 19.6963447,13.8919302 22.4999792,13.8919302 M22.4999792,12 C19.6483295,12 19.2908001,12.0120871 18.1708634,12.0631866 C17.0532192,12.1142027 16.2899784,12.2916753 15.6220593,12.5512572 C14.9315915,12.8195919 14.3460318,13.1786218 13.762306,13.7623476 C13.1785801,14.3460735 12.8195502,14.9316332 12.5512156,15.622101 C12.2916337,16.2900201 12.114161,17.0532609 12.0631449,18.1709051 C12.0120455,19.2908001 12,19.6483712 12,22.5000208 C12,25.3516705 12.0120455,25.7092416 12.0631449,26.8291366 C12.114161,27.9467808 12.2916337,28.7100216 12.5512156,29.3779407 C12.8195502,30.0683668 13.1785801,30.6539682 13.762306,31.237694 C14.3460318,31.8214199 14.9315915,32.1804498 15.6220593,32.4487844 C16.2899784,32.7083663 17.0532192,32.885839 18.1708634,32.9368551 C19.2908001,32.9879545 19.6483295,33 22.4999792,33 C25.3516288,33 25.7091999,32.9879545 26.8290949,32.9368551 C27.9467391,32.885839 28.7099799,32.7083663 29.377899,32.4487844 C30.0683668,32.1804498 30.6539265,31.8214199 31.2376524,31.237694 C31.8213782,30.6539682 32.1804081,30.0684085 32.4487428,29.3779407 C32.7083247,28.7100216 32.8857973,27.9467808 32.9368134,26.8291366 C32.9879129,25.7092416 33,25.3516705 33,22.5000208 C33,19.6483712 32.9879129,19.2908001 32.9368134,18.1709051 C32.8857973,17.0532609 32.7083247,16.2900201 32.4487428,15.622101 C32.1804081,14.9316332 31.8213782,14.3460735 31.2376524,13.7623476 C30.6539265,13.1786218 30.0683668,12.8195919 29.377899,12.5512572 C28.7099799,12.2916753 27.9467391,12.1142027 26.8290949,12.0631866 C25.7091999,12.0120871 25.3516288,12 22.4999792,12" stroke="#FCF0EC" stroke-width="0.7" fill="#26262E"></path>
            <path d="M22.5,17 C19.4624473,17 17,19.4624473 17,22.5 C17,25.5375527 19.4624473,28 22.5,28 C25.5375527,28 28,25.5375527 28,22.5 C28,19.4624473 25.5375527,17 22.5,17 Z M22.5,26.0701851 C20.528265,26.0701851 18.9298149,24.471735 18.9298149,22.5 C18.9298149,20.528265 20.528265,18.9298149 22.5,18.9298149 C24.471735,18.9298149 26.0701851,20.528265 26.0701851,22.5 C26.0701851,24.471735 24.471735,26.0701851 22.5,26.0701851 L22.5,26.0701851 Z" stroke="#FCF0EC" stroke-width="0.7" fill="#26262E"></path>
            <path d="M29,16.9999835 C29,17.5522734 28.5523064,18 28.0000165,18 C27.4477266,18 27,17.5522734 27,16.9999835 C27,16.4476936 27.4477266,16 28.0000165,16 C28.5523064,16 29,16.4476936 29,16.9999835" stroke="#FCF0EC" stroke-width="0.7" fill="#26262E"></path>
        </g>
    </g>
</svg>