<svg width="1250" height="512" xmlns="http://www.w3.org/2000/svg" xmlns:xlink="http://www.w3.org/1999/xlink"><title>Group 24</title><defs><path id="a" d="M0 0h201v427H0z"/><path id="c" d="M0 0h293v228H0z"/><path id="e" d="M0 0h116v54H0z"/></defs><g fill="none" fill-rule="evenodd"><g transform="translate(502 85)"><mask id="b" fill="#fff"><use xlink:href="#a"/></mask><path d="M62.911 116.276c-1.323.37-1.578.362-1.683.482-6.734 7.737-13.708 15.284-20.052 23.328-2.488 3.157-4.204 7.285-5.106 11.233-.986 4.324 2.243 6.523 6.125 4.276 3.277-1.9 6.716-4.308 8.752-7.377 3.312-4.998 5.967-10.556 8.095-16.184 1.829-4.843 2.533-10.113 3.87-15.758m80.393-5.99c.38.54.454.777.607.844 9.678 4.353 19.877 6.595 30.44 6.588 2.513-.003 5.435-1.52 7.463-3.197 7.017-5.8 9.417-13.844 9.754-22.618.217-5.693.177-11.406-2.086-16.791-2.085-4.958-3.966-5.785-8.802-3.851-1.743.7-3.422 1.622-5.013 2.629-10.932 6.927-18.658 16.976-26.189 27.187-2.223 3.016-4.186 6.227-6.174 9.209m-42.775 80.998c-.302-.073-.604-.145-.906-.215-.485 1.257-.95 2.521-1.46 3.768-6.995 17.15-14.411 34.147-20.893 51.492-7.533 20.16-14.407 40.574-21.263 60.979-4.317 12.847-8.216 25.84-12.052 38.84-4.906 16.615-9.534 33.314-14.327 49.962-2.094 7.277-4.394 14.497-6.387 21.799-.415 1.524.115 3.306.21 4.968 1.27-1.13 2.957-2.024 3.751-3.424 8.043-14.19 13.835-29.388 19.365-44.665 6.615-18.265 13.114-36.58 19.133-55.048 4.876-14.946 9.057-30.125 13.383-45.25a1964.952 1964.952 0 0 0 10.778-39.169c3-11.37 5.735-22.813 8.538-34.236.797-3.247 1.426-6.533 2.13-9.801M2.94 13.816C1.339 10.792-.555 7.78.152 4.06.697 1.19 4.451-.753 8.26.282c3.495.95 7.141 2.249 10.034 4.345 9.341 6.765 17.117 15.192 24.49 24.058 5.908 7.103 11.213 14.61 15 22.954 3.696 8.139 7.066 16.57 9.259 25.21 2.02 7.95 2.283 16.346 3.32 24.543.057.462.117.924.232 1.806 4.803-4.096 9.289-7.979 13.84-11.787 9.037-7.565 18.296-14.817 29.276-19.44 1.82-.767 3.77-1.35 5.715-1.667 2.255-.37 3.035 1.452 3.15 3.161.214 3.274.327 6.593.035 9.851-1.202 13.41-2.358 26.827-3.97 40.19-.914 7.601-2.704 15.096-4.04 22.65-.53 2.987-.895 6.003-.743 9.23 8.07-14.465 16.141-28.93 24.359-43.656l-7.044-6.387c.192-.278.385-.555.574-.833 1.846 1.14 3.772 2.172 5.516 3.449 1.955 1.434 3.124 1.08 4.59-.865 6.06-8.037 12.097-16.108 18.551-23.828 4.601-5.503 9.71-10.67 16.393-13.757 5.353-2.471 10.69-2.481 16.046.41 4.616 2.492 6.417 6.687 7.403 11.358 3.11 14.727-3.646 29.95-15.796 38.367-8.947 6.2-18.333 5.158-27.707 1.445-4.609-1.827-9.007-4.231-13.363-6.625-1.946-1.072-2.863-.537-3.812 1.122-6.682 11.675-13.396 23.33-20.092 34.996-1.092 1.902-1.923 3.996-3.245 5.72-6.354 8.282-6.486 18.458-8.667 28-4.354 19.054-8.345 38.194-12.956 57.187-4.256 17.53-8.992 34.946-13.778 52.339-2.377 8.644-5.21 17.17-8.075 25.672-3.177 9.427-6.4 18.85-10.003 28.12-5.783 14.863-11.525 29.767-18 44.337-4.323 9.718-9.71 18.987-15.019 28.23-1.458 2.54-4.276 4.342-6.621 6.298-.597.5-2.083.703-2.615.305-.615-.454-.962-1.774-.835-2.631.475-3.156 1.03-6.318 1.851-9.399 2.26-8.457 4.629-16.883 7.029-25.302 3.442-12.08 6.899-24.16 10.446-36.214 3.404-11.56 6.924-23.088 10.405-34.628 2.676-8.87 5.188-17.79 8.106-26.577 3.11-9.36 6.606-18.588 9.946-27.87 2.468-6.854 4.758-13.781 7.473-20.536 4.089-10.171 8.465-20.23 12.751-30.323 3.86-9.09 7.189-18.465 11.807-27.154 4.958-9.327 6.554-19.388 8.573-29.416 1.73-8.604 3.504-17.234 4.523-25.94 1.983-16.923 4.75-33.837 2.89-50.992-.065-.595-.14-1.19-.197-1.787-.22-2.29-1.182-3.129-3.312-1.707-7.788 5.19-15.644 10.28-23.335 15.609-4.008 2.779-7.583 6.192-11.62 8.926-5.177 3.511-7.043 8.407-7.65 14.365-1.019 10.008-3.851 19.557-9.002 28.253-4.393 7.422-11.065 12.183-19.163 14.86-4.348 1.439-8.13-2.105-7.563-6.845.754-6.293 3.852-11.608 7.78-16.276 6.218-7.387 12.939-14.35 19.296-21.624 1.136-1.302 2.128-3.229 2.188-4.903.694-19.215-2.645-37.753-10.306-55.39-2.05-4.724-5.05-9.045-7.728-13.48-6.025-9.974-13.633-18.708-21.893-26.822-3.44-3.38-7.683-5.968-11.682-8.742-1.806-1.252-3.93-1.552-5.865-.022-1.996 1.574-2.767 3.563-2.003 6.1.315 1.047.387 2.166.572 3.253l-1.04.24" fill="#000" mask="url(#b)"/></g><path d="M442.249 129.087c-.767-2.824-1.466-5.67-2.323-8.469-.729-2.38-1.408-4.825-2.512-7.041-4.26-8.546-11.69-12.652-20.793-13.644-9.577-1.042-18.738.98-27.768 4.386-18.955 7.151-35.02 18.626-50.18 31.787-10.466 9.088-19.909 19.094-28.193 30.099-11.345 15.075-22.221 30.548-29.159 48.295-1.57 4.015-2.327 8.436-2.877 12.744-.701 5.51 3.497 9.503 9.258 8.288 5.3-1.117 10.694-2.824 15.416-5.417 9.158-5.03 18.074-10.578 26.717-16.458 7.732-5.257 15.034-11.16 22.401-16.937 8.4-6.587 16.938-13.036 24.924-20.098 14.497-12.819 28.632-26.045 42.917-39.104.515-.47.954-1.062 1.541-1.407.545-.32 1.239-.387 1.868-.567.163.625.547 1.29.45 1.872-.872 5.11-2.115 10.175-2.702 15.315-1.272 11.08-2.775 22.182-3.092 33.307-.192 6.77 1.169 13.706 2.69 20.37 1.91 8.366 12.666 13.799 21.507 12.065 10.594-2.077 19.28-7.944 28.158-13.442 15.426-9.558 28.952-21.547 42.447-33.579 5.502-4.905 11.308-9.488 17.187-13.938 1.479-1.122 3.774-1.167 5.694-1.704.402 2.051 1.481 4.243 1.092 6.132-1.9 9.23-4.161 18.391-6.359 27.562-2.67 11.145-5.441 22.267-8.096 33.417-1.958 8.228-3.899 16.462-5.667 24.733-1.75 8.189-3.294 16.42-4.89 24.641-1.44 7.431-2.931 14.858-4.208 22.317-1.313 7.674-2.477 15.373-3.558 23.082-1.966 14.03-4.024 28.054-5.584 42.13-.393 3.538 1.256 7.257 1.426 10.917.247 5.218.047 10.46-.1 15.688-.023.797-.687 1.642-1.212 2.346-1.263 1.697-2.767 1.702-3.144-.434-.836-4.756-1.795-9.588-1.75-14.381.082-8.871.689-17.75 1.363-26.603 1.106-14.518 1.766-29.116 3.844-43.504 2.772-19.214 6.483-38.307 10.249-57.361 2.372-12.02 5.192-23.984 8.516-35.773 3.728-13.219 8.276-26.208 12.414-39.312 1.171-3.706 2.183-7.459 3.21-11.207.164-.597.022-1.28.022-1.922-.265-.215-.527-.43-.792-.644-3.224 2.541-6.608 4.905-9.637 7.664-7.225 6.579-13.913 13.8-21.49 19.93-11.073 8.956-22.439 17.624-34.259 25.548-6.96 4.668-14.764 8.409-23.405 9.4-4.273.49-8.634 1.413-12.844 1.01-7.707-.734-12.954-5.587-16.9-12.004-3.569-5.807-4.213-12.24-4.732-18.871-1.082-13.834 1.496-27.185 4.408-40.541.097-.447.06-.922.11-1.81-.882.523-1.507.765-1.971 1.185-8.269 7.522-16.398 15.2-24.804 22.565-8.626 7.559-17.354 15.015-26.332 22.15-12.337 9.802-24.684 19.637-37.535 28.738-9.505 6.727-19.752 12.457-31.185 15.528-2.015.542-4.09.975-6.166 1.167-8.349.775-13.294-3.558-13.808-11.982-.387-6.352 1.481-12.297 3.818-18.012 8.042-19.638 19.767-37.105 32.738-53.727 9.55-12.24 20.694-22.984 32.733-32.795 5.872-4.782 11.313-10.167 17.527-14.433 6.206-4.26 12.981-7.784 19.789-11.032 5.09-2.431 10.504-4.48 15.996-5.705 11.717-2.611 23.315-2.539 34.079 3.996 3.948 2.394 6.97 5.622 9.193 9.618 3.656 6.577 5.007 13.813 5.83 21.17.098.88-.431 1.826-.67 2.743l-.835-.047M126.687 165.946c.934.51 1.99 1.247 3.155 1.697 4.735 1.825 9.55 3.445 14.239 5.371 2.553 1.05 3.881.403 5.221-1.941 8.114-14.204 14.92-28.96 19.373-44.729 3.797-13.457 6.614-27.026 4.024-41.1-2.034-11.06-7.161-20.475-16.069-27.409-14.618-11.376-31.403-18.377-49.308-22.643-13.58-3.235-27.363-5.562-41.312-6.473-15.814-1.036-31.336.353-45.433 8.394C6.765 44.99 1.883 58.161 5.667 73.012c3.087 12.115 10.802 21.889 19.158 30.92 11.311 12.228 25.154 21.424 38.913 30.578 16.096 10.71 33.505 19.082 51.134 26.971 4.01 1.794 4.043 1.697 5.932-2.35.547-1.17 1.228-2.282 1.73-3.469 4.977-11.79 9.771-23.658 15.01-35.33 1.14-2.544 3.55-4.794 5.888-6.464 3.272-2.332 7.815.022 6.951 4.091-.631 2.97-1.16 6.108-2.546 8.749-6.814 12.996-13.902 25.853-21.15 39.238m25.41 10.241c9.88 3.43 19.391 6.73 28.903 10.03l-.247.879c-2.828-.77-5.686-1.449-8.481-2.33-6.452-2.036-12.891-4.114-19.293-6.294-2.06-.702-2.978.06-4.041 1.762-11.361 18.193-24.223 35.226-39.505 50.378-8.146 8.074-17.007 15.257-26.476 21.708-1.45.985-3.023 1.792-4.535 2.68-.245-.329-.487-.66-.73-.988.64-.63 1.249-1.292 1.92-1.884 8.738-7.685 18.045-14.823 26.075-23.183 8.793-9.156 16.617-19.278 24.46-29.29 5.079-6.487 9.481-13.505 14.096-20.344 2.087-3.091 1.9-3.407-1.68-4.734-5.031-1.867-10.083-3.688-15.09-5.622-1.927-.744-2.927 0-3.863 1.608-3.949 6.787-8.117 13.447-11.943 20.3-6.969 12.485-13.715 25.093-20.636 37.604-1.775 3.208-3.804 6.284-5.83 9.343-.742 1.12-1.822 2.016-2.746 3.014l-1.023-.346c.264-1.476.194-3.124.85-4.4 2.592-5.035 5.592-9.863 8.11-14.933 8.533-17.173 18.791-33.484 25.91-51.359 2.229-5.6 2.723-4.258-2.988-6.924-12.896-6.015-25.805-12.075-38.284-18.892-10.645-5.814-21-12.277-30.937-19.229-12.681-8.875-24.165-19.208-32.983-32.113C5.332 84.17.613 75.207.046 64.714c-.447-8.233 2.371-15.34 7.96-21.453 9.244-10.115 21.4-14.206 34.35-16.342 15.045-2.479 30.23-2.489 45.308-.42 7.765 1.067 15.367 3.275 23.052 4.927 15.477 3.326 29.773 9.545 43.061 17.982 10.98 6.969 18.994 16.421 23.217 28.975 3.524 10.475 3.422 20.978 1.737 31.694-1.93 12.263-5.426 24.06-10.71 35.242-4.604 9.75-9.848 19.2-14.813 28.783-.27.52-.551 1.035-1.11 2.085" fill="#000"/><g transform="translate(791)"><mask id="d" fill="#fff"><use xlink:href="#c"/></mask><path d="M188.236 172.265c-1.114 1.254-2.302 2.03-2.659 3.087-2.636 7.816-5.115 15.685-7.617 23.543-.224.702-.264 1.461.227 2.575.658-.627 1.303-1.271 1.981-1.875 8.472-7.544 16.744-15.336 25.527-22.495 3.279-2.674 7.6-4.38 11.718-5.631 7.09-2.155 12.587.35 16.571 6.675 4.216 6.692 4.555 6.557 9.9.891 3.316-3.513 6.941-7.02 11.07-9.422 8.125-4.73 14.08-2.714 19.57 3.387 8.062 8.955 13.64 19.528 17.343 31.045.394 1.223.778 2.447 1.133 3.683.023.087-.243.26-.577.594-2.497-3.815-4.929-7.616-7.445-11.36-5.691-8.465-12.015-16.4-19.9-22.949-5.353-4.442-8.039-4.63-13.425-.187-3.825 3.152-7.161 6.907-10.64 10.468-4.031 4.12-5.539 4.113-9.204-.494-2.895-3.638-6.204-6.538-10.6-8.406-5.281-2.25-9.542-.324-13.65 2.488-10.914 7.469-20.402 16.546-29.075 26.492-3.075 3.524-5.963 7.212-8.985 10.78-.765.907-1.595 1.983-2.626 2.373-1.03.392-2.537.362-3.461-.152-.478-.268-.53-2.175-.122-3.027 4.734-9.874 9.77-19.603 14.33-29.554 1.848-4.038 2.847-8.493 3.938-12.833.197-.777-.832-2.477-1.662-2.795-3.418-1.308-6.986-2.217-10.482-3.328-8.73-2.78-17.738-3.192-26.777-2.964-4.56.114-9.12.679-13.654 1.238-2.06.255-3.033 1.466-3.075 3.878-.17 9.3-1.156 18.537-3.91 27.462-.75 2.432-1.978 4.82-3.445 6.9-2.54 3.593-9.007 2.921-10.607-1.501-1.836-5.075-2.69-10.548-3.578-15.915-1.248-7.561-2.083-15.19-3.234-22.77-.162-1.065-1.121-2.007-1.712-3.008-.944.617-2.108 1.051-2.798 1.88-5.99 7.192-11.745 14.584-17.855 21.67-9.687 11.24-19.472 22.405-29.48 33.358-3.397 3.713-7.38 6.987-11.477 9.931-6.991 5.02-12.244-.202-12.465-6.78-.287-8.447-.504-16.993.423-25.366 1.983-17.93 4.734-35.772 7.144-53.654 2.663-19.773 4.995-39.583 5.459-59.558.256-11.07.755-22.155.446-33.213-.327-11.64-1.07-23.328-6.212-34.149C28.877 5.434 21.983 2.77 14.772 3.194c-5.601.33-9.555 4.048-11.957 9.202-.698 1.49-1.435 2.964-2.54 4.31-.841-2.882.377-5.302 1.87-7.487 6.822-10 18.923-12.29 28.397-4.77 5.852 4.648 9.874 11.083 11.13 18.63C43.124 31.8 44.467 40.59 45 49.404c.618 10.211.713 20.494.292 30.718-.543 13.123-1.418 26.26-2.903 39.306-1.552 13.614-4.123 27.106-6.02 40.684a2669.784 2669.784 0 0 0-6.278 48.315c-.404 3.331-.088 6.785.199 10.156.438 5.14 3.52 6.798 7.4 3.496 6.13-5.214 11.925-10.867 17.494-16.688 6.61-6.913 12.894-14.142 19.207-21.331 7.034-8.011 13.914-16.155 20.92-24.188 2.352-2.7 4.727-5.424 7.398-7.786 2.37-2.098 4.158-1.456 4.644 1.603 1.121 7.07 1.916 14.189 2.943 21.273a885.51 885.51 0 0 0 3.284 20.92c.14.833 1.044 1.538 1.592 2.302.658-.54 1.644-.944 1.923-1.633 3.922-9.74 6.9-19.708 7.007-30.896l-5.554 1.726c2.773-3.289 8.272-3.933 5.442-9.74l1.659.363c.319 1.446.635 2.892 1.017 4.627 19.138-6.273 37.272-1.665 55.837 5.759a89.682 89.682 0 0 0 4.41-27.522c.379-.087.757-.172 1.136-.257.673 1.903 1.784 3.77 1.939 5.714.533 6.715-.451 13.307-2.238 19.8-1.161 4.228-1.089 4.248.486 6.14" fill="#000" mask="url(#d)"/></g><path d="M1135.786 151.635c3.557 2.238 7.208 3.068 10.608 2.248 3.356-.808 6.75-2.523 7.924-6.494.574-1.94-.045-2.986-2.09-2.808-6.103.525-11.303 3.156-16.442 7.054M1117.77 40.5l-2.064 3.528c-.733-2.285-1.464-4.066-1.871-5.919-1.22-5.536-2.328-11.1-3.438-16.659-.135-.673-.267-1.545.037-2.063.906-1.533 2.031-2.933 3.07-4.386 1.017 1.083 2.571 2 2.958 3.273 1.674 5.51 3.328 11.06 4.396 16.707 2.805 14.811 3.396 29.77 1.43 44.727-1.547 11.755-3.458 23.466-5.424 35.159-1.767 10.51-3.648 21.01-5.816 31.443-2.066 9.952-4.483 19.835-6.906 29.707-1.607 6.547-3.495 13.024-4.673 19.873.681-1.085 1.415-2.146 2.04-3.266 7.07-12.656 14.524-24.981 24.344-35.827 6.285-6.941 13.822-11.453 22.57-13.768 3.435-.908 7.48-.008 11.15.633 2.415.42 3.22 3.075 1.531 4.876-1.86 1.983-4.054 4.246-6.514 4.959-6.252 1.81-12.704 3.758-19.114-.033-.756-.445-2.674.023-3.385.735-4.28 4.289-8.7 8.507-12.45 13.246-9.58 12.098-16.614 25.797-23.148 39.68-3.197 6.795-5.105 14.194-7.662 21.296a60.63 60.63 0 0 1-2.812 6.576c-.27.538-1.592 1.16-1.844.968-.599-.455-1.302-1.488-1.155-2.085.474-1.913 1.098-3.851 2.048-5.57 5.686-10.297 7.627-21.77 10.447-32.965 2.335-9.278 4.79-18.532 6.856-27.872 3.186-14.417 6.16-28.883 9.074-43.356 1.711-8.493 3.605-16.987 4.576-25.577 1.41-12.49 2.275-25.056 2.941-37.612.324-6.144-.317-12.34-.551-18.51-.018-.46-.295-.908-.641-1.918M769.232 158.824c-1.82-.298-3.634-.634-5.46-.882-2.077-.28-3.143.544-2.677 2.692.75 3.46 1.109 7.082 4.87 9.752 0-1.496-.114-3.003.045-4.484.089-.834.628-1.621.962-2.429.617.676 1.756 1.354 1.759 2.032.007 3.05.076 6.19-.623 9.128-.612 2.583-2.84 4.202-5.763 3.733-2.847-.457-3.938-2.802-4.039-5.23-.16-3.856.165-7.728.268-11.595.028-1.06.003-2.126.003-3.552-6.353 1.403-11.002 4.655-14.793 9.168-3.986 4.746-5.594 10.57-6.651 16.402-.828 4.548.28 8.679 4.988 11.44 7.304 4.285 15.264 5.52 23.507 5.914 11.166.534 21.189-2.925 30.052-9.23 4.102-2.918 7.312-7.043 10.908-10.637.6-.601 1.119-1.282 1.678-1.925.243.141.489.28.734.422-.45.83-.848 1.697-1.36 2.489-7.678 11.914-19.378 17.786-32.825 21.05-6.623 1.61-13.305 2.431-20.12 1.572-8.259-1.043-15.968-3.564-22.503-8.77-4.598-3.664-6.469-12.325-4.277-17.816 2.002-5.015 4.416-9.766 8.317-13.65 4.692-4.673 10.105-7.961 16.719-9.603 4.88-1.212 9.346-1.294 13.684 1.296 1.043.624 1.944 1.476 2.908 2.22l-.311.493" fill="#000"/><g transform="translate(1134 158)"><mask id="f" fill="#fff"><use xlink:href="#e"/></mask><path d="M116.001 41.809c-.604.686-1.124 1.478-1.825 2.04-4.98 3.98-10.332 7.351-16.756 8.098-7.942.925-15.932 2.097-23.894 2.052-12.06-.073-23.39-3.618-33.727-10.06-14.144-8.813-26.18-20.007-36.1-33.507C2.236 8.443 1.07 6.155.176 3.842-.207 2.849.056.968.757.357c.648-.561 2.716-.438 3.397.208 3.45 3.287 6.79 6.716 9.911 10.327 7.984 9.245 16.892 17.33 26.91 24.312 8.227 5.735 16.875 10.432 26.34 13.424 9.673 3.057 19.587 3.322 29.637 1.707 6.25-1.003 11.582-3.359 15.966-8.003.616-.654 1.674-.878 2.526-1.302l.557.779" fill="#000" mask="url(#f)"/></g><path d="M223.119 176.689c0-1.55.015-2.408-.003-3.266-.09-4.608-3.461-7.161-8.096-6.297-8.323 1.553-13.591 7.032-18.418 13.324-3.793 4.948-4.622 10.246-3.534 16.182.882 4.817 4.6 6.884 8.433 8.415 9.615 3.838 19.544 5.988 29.938 3.17 3.765-1.022 7.49-2.183 11.269-3.155.68-.176 1.523.25 2.292.398-.447.738-.77 1.995-1.36 2.133-6.314 1.47-12.618 3.13-19.03 4.011-7.946 1.094-15.86-.19-23.463-2.482-6.822-2.056-13.433-4.837-16.854-11.74-2.692-5.427-3.197-11.263-.528-16.606 5.168-10.335 13.85-16.585 25.292-19.233 5.437-1.257 10.113-.447 14.034 3.635 2.989 3.115 3.177 7.084.028 11.51M991 105.966c-1.276 2.3-2.246 4.826-3.915 6.835-1.805 2.175-4.46 2.918-7.33 1.4-2.674-1.41-4.519-4.986-3.443-7.604.854-2.081 2.143-4.105 3.666-5.816 1.59-1.781 3.865-2.255 6.317-1.292 2.926 1.148 3.951 3.36 4.705 6.477" fill="#000"/><path d="M217.468 190c-5.433-.548-9.173-4.49-8.356-8.977.413-2.274 1.578-3.66 4.153-2.73 2.383.857 4.898 1.555 7.03 2.84 2.456 1.48 1.808 4.122.84 6.097-.597 1.22-2.405 1.866-3.667 2.77" fill="#000"/></g></svg>